<?xml version="1.0" encoding="utf-8"?>
<!-- Generator: Adobe Illustrator 24.2.1, SVG Export Plug-In . SVG Version: 6.00 Build 0)  -->
<svg version="1.1" id="Layer_1" xmlns="http://www.w3.org/2000/svg" xmlns:xlink="http://www.w3.org/1999/xlink" x="0px" y="0px"
	 viewBox="0 0 136.82 136.82" style="enable-background:new 0 0 136.82 136.82;" xml:space="preserve">
<style type="text/css">
	.st0{fill:#333233;}
</style>
<path class="st0" d="M79.1,68.41L134.6,12.9c2.95-2.95,2.95-7.74,0-10.69c-2.95-2.95-7.74-2.95-10.69,0L68.41,57.72L12.9,2.21
	c-2.95-2.95-7.74-2.95-10.69,0l0,0c-2.95,2.95-2.95,7.74,0,10.69l55.51,55.51L2.21,123.91c-2.95,2.95-2.95,7.74,0,10.69
	c2.95,2.95,7.74,2.95,10.69,0L68.41,79.1l55.51,55.51c2.95,2.95,7.74,2.95,10.69,0c2.95-2.95,2.95-7.74,0-10.69L79.1,68.41z"/>
</svg>
